<?xml version="1.0" encoding="UTF-8" standalone="no"?>
<!-- Uploaded to: SVG Repo, www.svgrepo.com, Generator: SVG Repo Mixer Tools -->

<svg
   version="1.1"
   id="_x32_"
   viewBox="0 0 512 512"
   xml:space="preserve"
   sodipodi:docname="calendar-4-svgrepo-com.svg"
   inkscape:version="1.3 (0e150ed6c4, 2023-07-21)"
   xmlns:inkscape="http://www.inkscape.org/namespaces/inkscape"
   xmlns:sodipodi="http://sodipodi.sourceforge.net/DTD/sodipodi-0.dtd"
   xmlns="http://www.w3.org/2000/svg"
   xmlns:svg="http://www.w3.org/2000/svg"><defs
   id="defs14" /><sodipodi:namedview
   id="namedview14"
   pagecolor="#000000"
   bordercolor="#000000"
   borderopacity="0.25"
   inkscape:showpageshadow="2"
   inkscape:pageopacity="0.0"
   inkscape:pagecheckerboard="0"
   inkscape:deskcolor="#d1d1d1"
   inkscape:zoom="2.2207031"
   inkscape:cx="255.77485"
   inkscape:cy="256"
   inkscape:window-width="2560"
   inkscape:window-height="1351"
   inkscape:window-x="-9"
   inkscape:window-y="-9"
   inkscape:window-maximized="1"
   inkscape:current-layer="g14" />&#10;<style
   type="text/css"
   id="style1">&#10;	.st0{fill:#000000;}&#10;</style>&#10;<g
   id="g14">&#10;	<path
   class="st0"
   d="M149.193,103.525c15.994,0,28.964-12.97,28.964-28.972V28.964C178.157,12.97,165.187,0,149.193,0   C133.19,0,120.22,12.97,120.22,28.964v45.589C120.22,90.556,133.19,103.525,149.193,103.525z"
   id="path1"
   style="fill:#f8f8f8;fill-opacity:1" />&#10;	<path
   class="st0"
   d="M362.815,103.525c15.994,0,28.964-12.97,28.964-28.972V28.964C391.78,12.97,378.81,0,362.815,0   c-16.003,0-28.972,12.97-28.972,28.964v45.589C333.843,90.556,346.813,103.525,362.815,103.525z"
   id="path2"
   style="fill:#f8f8f8;fill-opacity:1" />&#10;	<path
   class="st0"
   d="M435.164,41.287h-17.925v33.266c0,30.017-24.415,54.431-54.423,54.431c-30.017,0-54.431-24.414-54.431-54.431   V41.287H203.615v33.266c0,30.017-24.414,54.431-54.422,54.431c-30.018,0-54.432-24.414-54.432-54.431V41.287H76.836   c-38.528,0-69.763,31.235-69.763,69.763v331.187C7.073,480.765,38.308,512,76.836,512h358.328   c38.528,0,69.763-31.235,69.763-69.763V111.05C504.927,72.522,473.691,41.287,435.164,41.287z M470.982,442.237   c0,19.748-16.07,35.818-35.818,35.818H76.836c-19.749,0-35.818-16.07-35.818-35.818V155.138h429.964V442.237z"
   id="path3"
   style="fill:#ffffff;fill-opacity:1" />&#10;	<rect
   x="183.676"
   y="377.571"
   class="st0"
   width="56.727"
   height="56.727"
   id="rect3"
   style="fill:#f8f8f8;fill-opacity:1" />&#10;	<rect
   x="183.676"
   y="289.65"
   class="st0"
   width="56.727"
   height="56.727"
   id="rect4"
   style="fill:#f8f8f8;fill-opacity:1" />&#10;	<rect
   x="95.765"
   y="377.571"
   class="st0"
   width="56.718"
   height="56.727"
   id="rect5"
   style="fill:#f8f8f8;fill-opacity:1" />&#10;	<rect
   x="95.765"
   y="289.65"
   class="st0"
   width="56.718"
   height="56.727"
   id="rect6"
   style="fill:#f8f8f8;fill-opacity:1" />&#10;	<rect
   x="359.517"
   y="201.73"
   class="st0"
   width="56.718"
   height="56.727"
   id="rect7"
   style="fill:#f8f8f8;fill-opacity:1" />&#10;	<rect
   x="271.597"
   y="201.73"
   class="st0"
   width="56.735"
   height="56.727"
   id="rect8"
   style="fill:#f8f8f8;fill-opacity:1" />&#10;	<rect
   x="271.597"
   y="289.65"
   class="st0"
   width="56.735"
   height="56.727"
   id="rect9"
   style="fill:#f8f8f8;fill-opacity:1" />&#10;	<rect
   x="359.517"
   y="377.571"
   class="st0"
   width="56.718"
   height="56.727"
   id="rect10"
   style="fill:#f8f8f8;fill-opacity:1" />&#10;	<rect
   x="359.517"
   y="289.65"
   class="st0"
   width="56.718"
   height="56.727"
   id="rect11"
   style="fill:#f8f8f8;fill-opacity:1" />&#10;	<rect
   x="271.597"
   y="377.571"
   class="st0"
   width="56.735"
   height="56.727"
   id="rect12"
   style="fill:#f8f8f8;fill-opacity:1" />&#10;	<rect
   x="183.676"
   y="201.73"
   class="st0"
   width="56.727"
   height="56.727"
   id="rect13"
   style="fill:#f8f8f8;fill-opacity:1" />&#10;	<rect
   x="95.765"
   y="201.73"
   class="st0"
   width="56.718"
   height="56.727"
   id="rect14"
   style="fill:#f8f8f8;fill-opacity:1" />&#10;</g>&#10;</svg>
